#tb 0: 1/25
#media_type 0: video
#codec_id 0: rawvideo
#dimensions 0: 832x480
#sar 0: 0/1
0,          0,          0,        1,   599040, 0xbd0eb43e
0,          1,          1,        1,   599040, 0x3ea696c4
0,          2,          2,        1,   599040, 0x866beffc
0,          3,          3,        1,   599040, 0x89622860
0,          4,          4,        1,   599040, 0x416bcaf8
0,          5,          5,        1,   599040, 0x4098709b
0,          6,          6,        1,   599040, 0x8d1ef343
0,          7,          7,        1,   599040, 0xbd1bbc79
0,          8,          8,        1,   599040, 0xc6a2c0dd
0,          9,          9,        1,   599040, 0x438cc40e
0,         10,         10,        1,   599040, 0xb666a438
0,         11,         11,        1,   599040, 0x114580e4
0,         12,         12,        1,   599040, 0xb75c41dc
0,         13,         13,        1,   599040, 0x52e1e32f
0,         14,         14,        1,   599040, 0x22835865
0,         15,         15,        1,   599040, 0xfb0e0003
0,         16,         16,        1,   599040, 0xebcb1ef9
0,         17,         17,        1,   599040, 0xd6939619
0,         18,         18,        1,   599040, 0xe22afdd8
0,         19,         19,        1,   599040, 0xff4a248f
0,         20,         20,        1,   599040, 0x9fc3878e
0,         21,         21,        1,   599040, 0xce2f6499
0,         22,         22,        1,   599040, 0x04aa9986
0,         23,         23,        1,   599040, 0x68ba9838
0,         24,         24,        1,   599040, 0x62e950a9
0,         25,         25,        1,   599040, 0x5161526d
0,         26,         26,        1,   599040, 0xcdde709e
0,         27,         27,        1,   599040, 0x8c48ded1
0,         28,         28,        1,   599040, 0x3451ecbb
0,         29,         29,        1,   599040, 0xfc5a5fca
0,         30,         30,        1,   599040, 0x7c0090fe
0,         31,         31,        1,   599040, 0xbc4eb1de
0,         32,         32,        1,   599040, 0x5350cf4f
0,         33,         33,        1,   599040, 0x175152d6
0,         34,         34,        1,   599040, 0xcf65acea
0,         35,         35,        1,   599040, 0x099a7298
0,         36,         36,        1,   599040, 0x31b7a2a2
0,         37,         37,        1,   599040, 0xd6a71415
0,         38,         38,        1,   599040, 0xe68880e7
0,         39,         39,        1,   599040, 0x0c7d0373
0,         40,         40,        1,   599040, 0xfb56ac78
0,         41,         41,        1,   599040, 0x1177b0dd
0,         42,         42,        1,   599040, 0x1393026f
0,         43,         43,        1,   599040, 0xc6346b58
0,         44,         44,        1,   599040, 0x2949cd11
0,         45,         45,        1,   599040, 0xff867f22
0,         46,         46,        1,   599040, 0xef196e4d
0,         47,         47,        1,   599040, 0x17a2332c
0,         48,         48,        1,   599040, 0x45d59fbc
0,         49,         49,        1,   599040, 0x5f51575c
0,         50,         50,        1,   599040, 0x6049a451
0,         51,         51,        1,   599040, 0x4d6086ac
0,         52,         52,        1,   599040, 0xd709596b
0,         53,         53,        1,   599040, 0xacdbc22f
0,         54,         54,        1,   599040, 0x45c11bb5
0,         55,         55,        1,   599040, 0x608a7c7e
0,         56,         56,        1,   599040, 0x242a67c9
0,         57,         57,        1,   599040, 0x2d186d8a
0,         58,         58,        1,   599040, 0x07ed9fd5
0,         59,         59,        1,   599040, 0xaee9a49b
0,         60,         60,        1,   599040, 0xaeb2b2a2
0,         61,         61,        1,   599040, 0x4ca2d84b
0,         62,         62,        1,   599040, 0x4254b5f6
0,         63,         63,        1,   599040, 0x105c7a25
0,         64,         64,        1,   599040, 0x87b51bce
